<svg width="252" height="368" viewBox="0 0 252 368" fill="none" xmlns="http://www.w3.org/2000/svg">
<g filter="url(#filter0_d_182_1899)">
<rect x="0.5" y="31.2695" width="243" height="328.731" fill="#262626"/>
<rect x="16.9746" y="47.3052" width="210.051" height="288.641" fill="white"/>
<rect x="81.5" y="26.4587" width="82.3729" height="25.657" fill="#FAED61"/>
<path fill-rule="evenodd" clip-rule="evenodd" d="M122.275 32.8731C131.601 32.8731 139.161 25.5142 139.161 16.4365C139.161 7.35888 131.601 0 122.275 0C112.948 0 105.388 7.35888 105.388 16.4365C105.388 25.5142 112.948 32.8731 122.275 32.8731ZM122.275 26.4588C127.961 26.4588 132.571 21.9717 132.571 16.4365C132.571 10.9014 127.961 6.41425 122.275 6.41425C116.588 6.41425 111.978 10.9014 111.978 16.4365C111.978 21.9717 116.588 26.4588 122.275 26.4588Z" fill="#FAED61"/>
<rect x="37.9412" y="170.677" width="114.526" height="6.45418" fill="#EAEAF0"/>
<rect x="81.5" y="90.3586" width="82.2235" height="6.45418" fill="#6C92C4"/>
<rect x="37.9412" y="235.219" width="60.1322" height="6.41423" fill="#EAEAF0"/>
<rect x="37.9412" y="190.04" width="168.118" height="6.45419" fill="#EAEAF0"/>
<rect x="37.9412" y="109.721" width="168.118" height="6.45419" fill="#EAEAF0"/>
<rect x="37.9412" y="254.462" width="88.139" height="6.41428" fill="#EAEAF0"/>
<rect x="37.9412" y="209.402" width="168.118" height="6.45418" fill="#EAEAF0"/>
<rect x="37.9412" y="129.084" width="168.118" height="6.45418" fill="#EAEAF0"/>
<path d="M177.996 310.697C195.89 310.697 210.396 296.191 210.396 278.296C210.396 260.402 195.89 245.896 177.996 245.896C160.102 245.896 145.596 260.402 145.596 278.296C145.596 296.191 160.102 310.697 177.996 310.697Z" stroke="#6C92C4" stroke-width="6" stroke-miterlimit="22.9256"/>
<path fill-rule="evenodd" clip-rule="evenodd" d="M167.815 290.41L159.493 292.176L159.27 291.126C159.581 290.867 159.914 290.623 160.27 290.393C160.626 290.164 160.992 289.98 161.367 289.843L158.046 274.193C157.658 274.18 157.249 274.16 156.82 274.136C156.387 274.093 155.984 274.005 155.609 273.873L155.386 272.822L163.708 271.056L163.931 272.107C163.69 272.331 163.41 272.555 163.091 272.776C162.772 272.998 162.417 273.189 162.028 273.349L164.257 283.855L164.438 286.071L165.312 283.516L170.214 272.305L170.073 271.641C169.164 271.623 168.379 271.51 167.719 271.303L167.496 270.252L175.818 268.487L176.041 269.537C175.771 269.806 175.447 270.049 175.069 270.264C174.705 270.456 174.33 270.642 173.944 270.82L177.265 286.469C177.705 286.453 178.124 286.48 178.524 286.549C178.939 286.596 179.331 286.676 179.702 286.79L179.925 287.841L171.603 289.607L171.38 288.556C171.611 288.372 171.885 288.169 172.204 287.948C172.538 287.704 172.898 287.492 173.283 287.314L171.06 276.835L170.873 274.592L170.092 277.041L165.109 288.413L165.238 289.021C165.681 289.024 166.103 289.059 166.503 289.129C166.903 289.198 167.266 289.275 167.592 289.36L167.815 290.41V290.41ZM189.334 285.844L181.039 287.604L180.817 286.554C181.062 286.348 181.353 286.132 181.69 285.906C182.024 285.662 182.431 285.45 182.914 285.271L179.593 269.621C179.208 269.626 178.8 269.607 178.367 269.564C177.953 269.517 177.549 269.429 177.155 269.301L176.933 268.25L196.784 264.038L197.007 265.088C196.704 265.384 196.373 265.637 196.013 265.848C195.649 266.041 195.282 266.215 194.91 266.371L198.231 282.02C198.929 281.949 199.741 282.056 200.668 282.341L200.891 283.392L192.597 285.152L192.374 284.101C192.527 283.915 192.737 283.725 193.004 283.534C193.268 283.324 193.628 283.113 194.084 282.9L190.751 267.196L183.728 268.686L187.061 284.391C187.449 284.405 187.804 284.445 188.127 284.511C188.449 284.578 188.777 284.672 189.111 284.794L189.334 285.844V285.844Z" fill="#6C92C4"/>
<path d="M178.012 318.125C200 318.125 217.825 300.3 217.825 278.313C217.825 256.325 200 238.5 178.012 238.5C156.025 238.5 138.2 256.325 138.2 278.313C138.2 300.3 156.025 318.125 178.012 318.125Z" stroke="#6C92C4" stroke-width="2" stroke-miterlimit="22.9256"/>
</g>
<defs>
<filter id="filter0_d_182_1899" x="0.5" y="0" width="251" height="368" filterUnits="userSpaceOnUse" color-interpolation-filters="sRGB">
<feFlood flood-opacity="0" result="BackgroundImageFix"/>
<feColorMatrix in="SourceAlpha" type="matrix" values="0 0 0 0 0 0 0 0 0 0 0 0 0 0 0 0 0 0 127 0" result="hardAlpha"/>
<feOffset dx="8" dy="8"/>
<feComposite in2="hardAlpha" operator="out"/>
<feColorMatrix type="matrix" values="0 0 0 0 0.917647 0 0 0 0 0.917647 0 0 0 0 0.941176 0 0 0 1 0"/>
<feBlend mode="normal" in2="BackgroundImageFix" result="effect1_dropShadow_182_1899"/>
<feBlend mode="normal" in="SourceGraphic" in2="effect1_dropShadow_182_1899" result="shape"/>
</filter>
</defs>
</svg>
