<svg width="326" height="198" viewBox="0 0 326 198" fill="none" xmlns="http://www.w3.org/2000/svg">
<ellipse cx="31.3523" cy="110.471" rx="30.9206" ry="41.8798" fill="#05D197"/>
<path d="M31.3521 103.586L37.0782 188.493H25.6262L31.3521 103.586Z" fill="#F3CD8E"/>
<path d="M8.97764 125.055L30.311 134.646L31.3443 141.868L8.97764 125.055Z" fill="#F3CD8E"/>
<path d="M53.7504 125.055L32.417 134.646L31.3838 141.868L53.7504 125.055Z" fill="#F3CD8E"/>
<rect x="86.8947" y="14.0897" width="18.3233" height="28.6848" fill="#262626"/>
<rect x="81.1685" y="4.91064" width="29.7754" height="9.17914" fill="#363636"/>
<rect x="86.8947" y="17.5321" width="8.01646" height="4.01587" fill="#363636"/>
<rect x="86.8947" y="17.5321" width="8.01646" height="4.01587" fill="#363636"/>
<rect x="86.8947" y="17.5321" width="8.01646" height="4.01587" fill="#363636"/>
<rect x="86.8947" y="17.5321" width="8.01646" height="4.01587" fill="#363636"/>
<rect x="86.8947" y="33.022" width="8.01646" height="4.01587" fill="#363636"/>
<rect x="86.8947" y="33.022" width="8.01646" height="4.01587" fill="#363636"/>
<rect x="86.8947" y="33.022" width="8.01646" height="4.01587" fill="#363636"/>
<rect x="86.8947" y="33.022" width="8.01646" height="4.01587" fill="#363636"/>
<rect x="94.911" y="25.564" width="8.01646" height="4.01587" fill="#363636"/>
<rect x="94.911" y="25.564" width="8.01646" height="4.01587" fill="#363636"/>
<rect x="94.911" y="25.564" width="8.01646" height="4.01587" fill="#363636"/>
<rect x="94.911" y="25.564" width="8.01646" height="4.01587" fill="#363636"/>
<path fill-rule="evenodd" clip-rule="evenodd" d="M239.78 71.7478L143.582 0.894409L47.3853 71.7471V78.9171H239.78V71.7478Z" fill="#EF806F"/>
<rect x="55.9738" y="73.1794" width="175.217" height="92.9388" fill="#EAEAF0"/>
<path d="M143.582 12.3679L231.19 73.1797H55.9738L143.582 12.3679Z" fill="#EAEAF0"/>
<rect x="62.1582" y="71.8748" width="162.734" height="94.1722" fill="white"/>
<path d="M143.525 16.3553L224.892 71.8748H62.1582L143.525 16.3553Z" fill="white"/>
<rect x="76.2607" y="98.9962" width="32.7202" height="30.45" fill="#F3CD8E"/>
<rect width="36.6466" height="3.97173" transform="matrix(1 0 0 -1 74.2973 133.418)" fill="#F3CD8E"/>
<rect x="78.8781" y="101.644" width="12.4337" height="12.5772" fill="#9FD7E8"/>
<path d="M91.3118 101.644L78.8781 114.221V101.644H91.3118Z" fill="#B3DFEC"/>
<rect x="93.9293" y="101.644" width="12.4337" height="12.5772" fill="#9FD7E8"/>
<path d="M106.363 101.644L93.9293 114.221V101.644H106.363Z" fill="#B3DFEC"/>
<rect x="78.8781" y="116.87" width="12.4337" height="12.5772" fill="#9FD7E8"/>
<path d="M91.3118 116.87L78.8781 129.447V116.87H91.3118Z" fill="#B3DFEC"/>
<rect x="93.9293" y="116.87" width="12.4337" height="12.5772" fill="#9FD7E8"/>
<path d="M106.363 116.87L93.9293 129.447V116.87H106.363Z" fill="#B3DFEC"/>
<rect x="174.176" y="98.7915" width="32.7202" height="30.4499" fill="#F3CD8E"/>
<rect width="36.6466" height="3.97171" transform="matrix(1 0 0 -1 172.213 133.214)" fill="#F3CD8E"/>
<rect x="176.793" y="101.44" width="12.4337" height="12.5771" fill="#9FD7E8"/>
<path d="M189.227 101.44L176.793 114.017V101.44H189.227Z" fill="#B3DFEC"/>
<rect x="191.845" y="101.44" width="12.4337" height="12.5771" fill="#9FD7E8"/>
<path d="M204.278 101.44L191.845 114.017V101.44H204.278Z" fill="#B3DFEC"/>
<rect x="176.793" y="116.664" width="12.4337" height="12.5771" fill="#9FD7E8"/>
<path d="M189.227 116.664L176.793 129.241V116.664H189.227Z" fill="#B3DFEC"/>
<rect x="191.845" y="116.664" width="12.4337" height="12.5771" fill="#9FD7E8"/>
<path d="M204.278 116.664L191.845 129.241V116.664H204.278Z" fill="#B3DFEC"/>
<rect x="55.974" y="165.545" width="175.217" height="22.9478" fill="#EAEAF0"/>
<rect x="87.4675" y="72.0326" width="17.1781" height="8.60544" fill="#EAEAF0"/>
<rect x="104.645" y="63.4268" width="17.1781" height="8.60545" fill="#EAEAF0"/>
<rect x="156.18" y="72.0326" width="17.1781" height="8.60544" fill="#EAEAF0"/>
<rect x="173.358" y="63.4268" width="17.1781" height="8.60545" fill="#EAEAF0"/>
<rect x="139.002" y="37.6106" width="17.1781" height="8.60545" fill="#EAEAF0"/>
<rect x="104.645" y="80.6378" width="17.1781" height="8.60544" fill="#EAEAF0"/>
<rect x="70.2893" y="149.481" width="17.1781" height="8.60544" fill="#EAEAF0"/>
<rect x="190.536" y="140.876" width="17.1781" height="8.60542" fill="#EAEAF0"/>
<rect x="207.714" y="80.6378" width="17.1781" height="8.60544" fill="#EAEAF0"/>
<rect x="123.827" y="109.419" width="36.0741" height="74.9635" fill="#F3CD8E"/>
<rect width="40.0822" height="4.0159" transform="matrix(1 0 0 -1 121.823 188.398)" fill="#363636"/>
<rect x="126.584" y="112.016" width="14.0288" height="21.4182" fill="white"/>
<rect x="126.584" y="160.206" width="14.0288" height="21.4182" fill="white"/>
<rect x="126.584" y="136.112" width="14.0288" height="21.4182" fill="white"/>
<rect x="143.284" y="112.016" width="14.0288" height="21.4182" fill="white"/>
<rect x="143.284" y="136.112" width="14.0288" height="21.4182" fill="white"/>
<rect x="143.284" y="160.206" width="14.0288" height="21.4182" fill="white"/>
<rect x="127.919" y="113.354" width="11.3566" height="18.7409" fill="#F3CD8E"/>
<rect x="144.619" y="113.354" width="11.3566" height="18.7409" fill="#F3CD8E"/>
<rect x="127.919" y="137.45" width="11.3566" height="18.7409" fill="#F3CD8E"/>
<rect x="144.619" y="137.45" width="11.3566" height="18.7409" fill="#F3CD8E"/>
<rect x="127.919" y="161.545" width="11.3566" height="18.7409" fill="#F3CD8E"/>
<rect x="144.619" y="161.545" width="11.3566" height="18.7409" fill="#F3CD8E"/>
<ellipse cx="127.252" cy="146.82" rx="2.00412" ry="2.00796" fill="#FAE961"/>
<path d="M285.873 152.422L322.882 162.533L323.38 162.676V177.808L319.893 181.322H188.154L184.667 177.808V176.23V152.422L204.666 130.263L268.649 134.135L285.873 152.422Z" fill="#FE8C7B"/>
<path d="M294.823 179.17C294.823 180.083 294.084 180.822 293.175 180.822C292.266 180.822 291.528 180.083 291.528 179.17C291.528 178.257 292.266 177.519 293.175 177.519C294.084 177.519 294.823 178.257 294.823 179.17Z" stroke="black"/>
<mask id="mask0_313_6434" style="mask-type:alpha" maskUnits="userSpaceOnUse" x="184" y="155" width="141" height="23">
<path d="M184.667 155.792L324.239 164.9V177.306H184.667V155.792Z" fill="white"/>
</mask>
<g mask="url(#mask0_313_6434)">
<path d="M285.872 152.422L322.882 162.533L323.38 162.677V177.808L319.892 181.322H188.154L184.667 177.808V176.23V152.422L204.666 130.263L268.649 134.136L285.872 152.422Z" fill="#EF806F"/>
</g>
<path fill-rule="evenodd" clip-rule="evenodd" d="M208.409 133.705L231.721 135.111L233.851 151.203H192.559L208.409 133.705ZM278.873 151.203L265.591 137.153L236.088 135.374L238.183 151.203H278.873Z" fill="#9FD7E8"/>
<path d="M182.52 172.43L199.411 174.796V179.601H182.52V172.43Z" fill="#F8F8FA"/>
<path d="M182.52 175.872L199.411 177.103V179.601H182.52V175.872Z" fill="#F4F4F8"/>
<path d="M306.059 171.856L325.384 174.007V179.6H306.919L306.059 171.856Z" fill="#F4F4F8"/>
<path fill-rule="evenodd" clip-rule="evenodd" d="M325.384 174.007L306.059 171.855L306.54 176.182L325.384 177.114V174.007ZM325.384 179.6H306.919L306.919 179.6L306.919 179.6H325.384V179.6Z" fill="#F8F8FA"/>
<ellipse cx="293.175" cy="179.17" rx="9.8774" ry="9.89627" fill="#363636"/>
<ellipse cx="293.175" cy="179.17" rx="6.29863" ry="6.31065" fill="#EAEAF0"/>
<ellipse cx="293.175" cy="179.17" rx="2.14729" ry="2.15137" fill="#363636"/>
<ellipse cx="213.011" cy="179.17" rx="9.8774" ry="9.89627" fill="#363636"/>
<ellipse cx="213.011" cy="179.17" rx="6.29865" ry="6.31065" fill="#EAEAF0"/>
<ellipse cx="213.011" cy="179.17" rx="2.14728" ry="2.15137" fill="#363636"/>
<mask id="mask1_313_6434" style="mask-type:alpha" maskUnits="userSpaceOnUse" x="184" y="125" width="87" height="43">
<rect width="18.7602" height="31.8397" transform="matrix(0.890519 -0.454947 0.453573 0.891219 239.637 134.208)" fill="#C4C4C4"/>
<rect width="26.3048" height="31.8397" transform="matrix(0.890518 -0.454947 0.453572 0.891219 184.06 139.199)" fill="#C4C4C4"/>
</mask>
<g mask="url(#mask1_313_6434)">
<path fill-rule="evenodd" clip-rule="evenodd" d="M208.409 133.706L231.721 135.111L233.851 151.204H192.559L208.409 133.706ZM278.873 151.204L265.591 137.154L236.088 135.375L238.183 151.204H278.873Z" fill="#B3DFEC"/>
</g>
<ellipse cx="279.433" cy="152.565" rx="1.57466" ry="1.7928" fill="#EF806F"/>
<ellipse cx="278.001" cy="148.765" rx="2.00412" ry="2.00794" fill="#EF806F"/>
<ellipse cx="278.001" cy="151.203" rx="2.00412" ry="2.00793" fill="#EF806F"/>
<rect x="275.997" y="148.621" width="4.00824" height="2.58165" fill="#EF806F"/>
<path fill-rule="evenodd" clip-rule="evenodd" d="M188.532 164.254C184.506 164.684 183.379 165.258 183.379 167.553C183.379 169.848 184.506 170.421 188.532 170.852V164.254Z" fill="#FE8C7B"/>
<path fill-rule="evenodd" clip-rule="evenodd" d="M323.38 172.286C323.38 172.286 323.38 172.286 323.38 172.286C320.218 172.286 317.654 169.718 317.654 166.549H323.38V172.286ZM323.422 160.812H323.38H323.338L323.38 160.812L323.422 160.812Z" fill="#FE8C7B"/>
<mask id="mask2_313_6434" style="mask-type:alpha" maskUnits="userSpaceOnUse" x="67" y="168" width="40" height="30">
<ellipse cx="86.8947" cy="178.167" rx="9.73427" ry="9.75284" fill="#05D197"/>
<ellipse cx="77.1605" cy="187.92" rx="9.73426" ry="9.75284" fill="#05D197"/>
<ellipse cx="96.6291" cy="187.92" rx="9.73426" ry="9.75284" fill="#05D197"/>
</mask>
<g mask="url(#mask2_313_6434)">
<rect width="54.97" height="21.2267" transform="matrix(1 0 0 -1 59.1235 188.493)" fill="#05D197"/>
</g>
</svg>
