<svg width="285" height="211" viewBox="0 0 285 211" fill="none" xmlns="http://www.w3.org/2000/svg">
<ellipse cx="110.695" cy="9.22524" rx="9.1214" ry="9.14193" fill="#262626"/>
<ellipse cx="174.545" cy="9.22524" rx="9.12141" ry="9.14193" fill="#262626"/>
<rect x="110.695" y="0.083313" width="64.1348" height="18.2839" fill="#262626"/>
<rect x="101.574" y="9.22552" width="18.2428" height="33.7109" fill="#262626"/>
<rect x="165.424" y="9.22552" width="18.2428" height="33.7109" fill="#262626"/>
<ellipse cx="56.917" cy="31.8584" rx="3.80058" ry="3.77744" fill="#262626"/>
<ellipse cx="83.5215" cy="31.8584" rx="3.80059" ry="3.77744" fill="#262626"/>
<rect x="56.9172" y="28.0809" width="26.7229" height="6.49247" fill="#262626"/>
<ellipse cx="201.719" cy="31.8584" rx="3.8006" ry="3.77744" fill="#262626"/>
<ellipse cx="228.323" cy="31.8584" rx="3.80059" ry="3.77744" fill="#262626"/>
<rect x="201.719" y="28.0809" width="26.7229" height="6.49247" fill="#262626"/>
<ellipse cx="49.4105" cy="51.7922" rx="19.9531" ry="19.998" fill="#EF806F"/>
<ellipse cx="235.829" cy="51.7922" rx="19.9531" ry="19.998" fill="#EF806F"/>
<ellipse cx="49.4105" cy="160.924" rx="19.9531" ry="19.998" fill="#EF806F"/>
<ellipse cx="235.829" cy="160.924" rx="19.9531" ry="19.998" fill="#EF806F"/>
<rect x="49.4105" y="31.7942" width="186.419" height="39.9959" fill="#EF806F"/>
<rect x="49.4105" y="140.926" width="186.419" height="39.996" fill="#EF806F"/>
<rect x="29.4574" y="51.7921" width="39.9061" height="109.132" fill="#EF806F"/>
<rect x="215.876" y="51.7921" width="39.9061" height="109.132" fill="#EF806F"/>
<rect x="29.4574" y="51.7921" width="226.325" height="109.132" fill="#EF806F"/>
<ellipse cx="142.905" cy="107.215" rx="59.8592" ry="59.9939" fill="white"/>
<rect x="101.574" y="92.9308" width="82.0926" height="26.8544" fill="#EF806F"/>
<rect x="129.223" y="147.497" width="82.2773" height="26.7941" transform="rotate(-90 129.223 147.497)" fill="#EF806F"/>
<rect x="0.953247" y="81.4706" width="84.1842" height="117.095" fill="#262626"/>
<rect x="6.66064" y="87.1825" width="72.7694" height="102.815" fill="white"/>
<rect x="31.7733" y="79.757" width="28.537" height="9.1391" fill="#FAED61"/>
<path fill-rule="evenodd" clip-rule="evenodd" d="M45.899 82.0418C49.13 82.0418 51.7491 79.4205 51.7491 76.187C51.7491 72.9535 49.13 70.3323 45.899 70.3323C42.6681 70.3323 40.049 72.9535 40.049 76.187C40.049 79.4205 42.6681 82.0418 45.899 82.0418ZM45.899 79.757C47.8691 79.757 49.4662 78.1586 49.4662 76.187C49.4662 74.2154 47.8691 72.6171 45.899 72.6171C43.929 72.6171 42.3319 74.2154 42.3319 76.187C42.3319 78.1586 43.929 79.757 45.899 79.757Z" fill="#FAED61"/>
<rect x="15.5071" y="131.164" width="20.832" height="2.28478" fill="#EAEAF0"/>
<rect x="15.5071" y="102.605" width="37.6689" height="2.28477" fill="#EAEAF0"/>
<rect x="15.5071" y="159.724" width="37.6689" height="2.28479" fill="#EAEAF0"/>
<rect x="15.5071" y="138.019" width="30.5346" height="2.28477" fill="#EAEAF0"/>
<rect x="15.5071" y="109.459" width="55.0764" height="2.28478" fill="#EAEAF0"/>
<rect x="15.5071" y="166.578" width="55.0764" height="2.28475" fill="#EAEAF0"/>
<rect x="15.5071" y="144.873" width="30.5346" height="2.28477" fill="#EAEAF0"/>
<rect x="15.5071" y="116.313" width="55.0764" height="2.28477" fill="#EAEAF0"/>
<rect x="15.5071" y="173.433" width="55.0764" height="2.28479" fill="#EAEAF0"/>
<path d="M70.1693 134.596C69.9037 133.98 69.5206 133.422 69.0416 132.954C68.5622 132.483 67.997 132.11 67.3767 131.853C66.7335 131.585 66.0437 131.448 65.3472 131.45C64.3701 131.45 63.4168 131.718 62.5883 132.224C62.3901 132.345 62.2018 132.478 62.0234 132.622C61.8451 132.478 61.6568 132.345 61.4586 132.224C60.6301 131.718 59.6768 131.45 58.6997 131.45C57.9961 131.45 57.3143 131.585 56.6702 131.853C56.0478 132.111 55.4869 132.482 55.0053 132.954C54.5257 133.422 54.1425 133.98 53.8776 134.596C53.6021 135.237 53.4614 135.917 53.4614 136.617C53.4614 137.278 53.5961 137.966 53.8637 138.666C54.0877 139.251 54.4087 139.858 54.819 140.471C55.4691 141.441 56.363 142.453 57.4729 143.478C59.3121 145.178 61.1335 146.352 61.2108 146.4L61.6806 146.702C61.8887 146.834 62.1562 146.834 62.3643 146.702L62.8341 146.4C62.9114 146.35 64.7308 145.178 66.5721 143.478C67.682 142.453 68.5758 141.441 69.2259 140.471C69.6362 139.858 69.9592 139.251 70.1812 138.666C70.4488 137.966 70.5835 137.278 70.5835 136.617C70.5855 135.917 70.4448 135.237 70.1693 134.596Z" fill="#EF806F"/>
<rect x="218.649" y="125.552" width="62.8637" height="67.688" fill="#FAE961"/>
<rect x="215.876" y="122.316" width="68.4105" height="3.23608" fill="#FAE961"/>
<rect x="215.876" y="119.08" width="68.4105" height="3.23607" fill="#F8F8FA"/>
<rect x="218.726" y="102.072" width="62.7096" height="17.1411" fill="#F8F8FA"/>
<rect x="222.432" y="102.072" width="5.98587" height="17.1411" fill="#EAEAF0"/>
<rect x="234.689" y="102.072" width="6.27094" height="17.1411" fill="#EAEAF0"/>
<rect x="246.946" y="102.072" width="6.271" height="17.1411" fill="#EAEAF0"/>
<rect x="259.203" y="102.072" width="6.271" height="17.1411" fill="#EAEAF0"/>
<rect x="271.745" y="102.072" width="5.98593" height="17.1411" fill="#EAEAF0"/>
<rect x="235.29" y="134.452" width="46.2234" height="49.8896" fill="#F8F8FA"/>
<rect x="248.541" y="161.689" width="32.9727" height="2.15739" fill="#EAEAF0"/>
<rect x="253.779" y="142.002" width="22.4955" height="14.5623" fill="#11B7E9"/>
<rect x="248.541" y="168.161" width="32.9727" height="2.15739" fill="#EAEAF0"/>
<rect x="248.541" y="174.634" width="32.9727" height="2.15735" fill="#EAEAF0"/>
<ellipse cx="250.081" cy="193.24" rx="31.4319" ry="5.39347" fill="#FAE961"/>
<ellipse cx="258.402" cy="184.207" rx="23.1117" ry="3.91027" fill="#F8F8FA"/>
<rect x="189.082" y="186.636" width="5.70088" height="11.4274" fill="#EF806F"/>
<ellipse cx="194.783" cy="192.349" rx="5.70087" ry="5.71371" fill="#EF806F"/>
<rect x="189.082" y="198.063" width="5.70087" height="11.4274" transform="rotate(-180 189.082 198.063)" fill="#F8F8FA"/>
<ellipse cx="183.381" cy="192.35" rx="5.70087" ry="5.7137" transform="rotate(-180 183.381 192.35)" fill="#F8F8FA"/>
<ellipse cx="1.42523" cy="5.7137" rx="1.42523" ry="5.7137" transform="matrix(1 8.76186e-08 8.72274e-08 -1 187.657 198.063)" fill="#F8F8FA"/>
<rect width="5.70173" height="11.4257" transform="matrix(0.96578 -0.259362 0.258277 0.966071 208.313 196.922)" fill="#262626"/>
<ellipse cx="5.70175" cy="5.71284" rx="5.70175" ry="5.71284" transform="matrix(0.96578 -0.259362 0.258277 0.966071 208.313 196.922)" fill="#262626"/>
<rect width="5.70173" height="11.4257" transform="matrix(-0.96578 0.259363 -0.258276 -0.966071 211.264 207.959)" fill="#F8F8FA"/>
<ellipse cx="5.70172" cy="5.71282" rx="5.70172" ry="5.71282" transform="matrix(-0.96578 0.259362 -0.258277 -0.966071 211.264 207.959)" fill="#F8F8FA"/>
<ellipse cx="1.42544" cy="5.71286" rx="1.42544" ry="5.71286" transform="matrix(0.96578 -0.259362 -0.258277 -0.966071 209.887 208.329)" fill="#F8F8FA"/>
<rect width="5.70173" height="11.4257" transform="matrix(0.96578 0.259363 -0.258276 0.966071 168.271 195.307)" fill="#11B7E9"/>
<ellipse cx="5.70174" cy="5.71286" rx="5.70174" ry="5.71286" transform="matrix(0.96578 0.259363 -0.258276 0.966071 168.271 195.307)" fill="#11B7E9"/>
<rect width="5.70172" height="11.4257" transform="matrix(-0.96578 -0.259363 0.258276 -0.966071 165.32 206.344)" fill="#F8F8FA"/>
<ellipse cx="5.70173" cy="5.71284" rx="5.70173" ry="5.71284" transform="matrix(-0.96578 -0.259362 0.258277 -0.966071 165.32 206.344)" fill="#F8F8FA"/>
<ellipse cx="1.42542" cy="5.71286" rx="1.42542" ry="5.71286" transform="matrix(0.965779 0.259365 0.258274 -0.966072 163.944 205.974)" fill="#F8F8FA"/>
</svg>
