<svg width="280" height="211" viewBox="0 0 280 211" fill="none" xmlns="http://www.w3.org/2000/svg">
<rect x="0.726685" y="11.1217" width="220.348" height="177.718" fill="#F4F4F8"/>
<rect x="14.4983" y="145.79" width="27.5434" height="27.596" fill="#F3CD8E"/>
<rect width="29.7469" height="3.31154" transform="matrix(1 0 0 -1 13.3966 176.697)" fill="#F3CD8E"/>
<rect x="14.4983" y="146.894" width="27.5434" height="25.3883" fill="#9FD7E8"/>
<path d="M42.0417 146.894L14.4984 172.282V146.894H42.0417Z" fill="#B3DFEC"/>
<rect x="0.726685" y="188.84" width="220.348" height="22.0768" fill="#EAEAF0"/>
<rect x="56.3644" y="0.083313" width="82.0795" height="11.0384" fill="#EAEAF0"/>
<rect x="24.414" y="71.8329" width="16.5261" height="5.5192" fill="#EAEAF0"/>
<rect x="40.9401" y="77.3521" width="16.5261" height="5.5192" fill="#EAEAF0"/>
<rect x="24.414" y="130.888" width="16.5261" height="5.51921" fill="#EAEAF0"/>
<rect x="101.536" y="97.2212" width="16.5261" height="5.5192" fill="#EAEAF0"/>
<rect x="68.4836" y="145.79" width="29.7469" height="61.815" fill="#F3CD8E"/>
<rect width="33.0521" height="3.31151" transform="matrix(1 0 0 -1 66.831 210.917)" fill="#363636"/>
<rect x="70.6871" y="147.998" width="11.5683" height="17.6614" fill="#F4F4F8"/>
<rect x="70.6871" y="187.736" width="11.5683" height="17.6614" fill="#F4F4F8"/>
<rect x="70.6871" y="167.867" width="11.5683" height="17.6615" fill="#F4F4F8"/>
<rect x="84.4588" y="147.998" width="11.5682" height="17.6614" fill="#F4F4F8"/>
<rect x="84.4588" y="167.867" width="11.5682" height="17.6615" fill="#F4F4F8"/>
<rect x="84.4588" y="187.736" width="11.5682" height="17.6614" fill="#F4F4F8"/>
<rect x="71.7888" y="149.101" width="9.36479" height="15.4538" fill="#F3CD8E"/>
<rect x="85.5605" y="149.101" width="9.36479" height="15.4538" fill="#F3CD8E"/>
<rect x="71.7888" y="168.971" width="9.36479" height="15.4538" fill="#F3CD8E"/>
<rect x="85.5605" y="168.971" width="9.36479" height="15.4538" fill="#F3CD8E"/>
<rect x="71.7888" y="188.84" width="9.36479" height="15.4538" fill="#F3CD8E"/>
<rect x="85.5605" y="188.84" width="9.36479" height="15.4538" fill="#F3CD8E"/>
<ellipse cx="71.2379" cy="176.697" rx="1.65261" ry="1.65576" fill="#FAE961"/>
<rect x="124.672" y="145.79" width="27.5434" height="27.596" fill="#F3CD8E"/>
<rect width="29.7469" height="3.31154" transform="matrix(1 0 0 -1 123.57 176.697)" fill="#F3CD8E"/>
<rect x="124.672" y="146.894" width="27.5434" height="25.3883" fill="#9FD7E8"/>
<path d="M152.215 146.894L124.672 172.282V146.894H152.215Z" fill="#B3DFEC"/>
<rect x="179.759" y="145.79" width="27.5435" height="27.596" fill="#F3CD8E"/>
<rect width="29.7469" height="3.31154" transform="matrix(1 0 0 -1 178.657 176.697)" fill="#F3CD8E"/>
<rect x="179.759" y="146.894" width="27.5435" height="25.3883" fill="#9FD7E8"/>
<path d="M207.302 146.894L179.759 172.282V146.894H207.302Z" fill="#B3DFEC"/>
<rect x="14.4983" y="90.5981" width="27.5434" height="27.596" fill="#F3CD8E"/>
<rect width="29.7469" height="3.31152" transform="matrix(1 0 0 -1 13.3966 121.506)" fill="#F3CD8E"/>
<rect x="14.4983" y="91.7019" width="27.5434" height="25.3883" fill="#9FD7E8"/>
<path d="M42.0417 91.702L14.4984 117.09V91.702H42.0417Z" fill="#B3DFEC"/>
<rect x="69.5854" y="90.5981" width="27.5434" height="27.596" fill="#F3CD8E"/>
<rect width="29.7469" height="3.31152" transform="matrix(1 0 0 -1 68.4837 121.506)" fill="#F3CD8E"/>
<rect x="69.5854" y="91.7019" width="27.5434" height="25.3883" fill="#9FD7E8"/>
<path d="M97.1286 91.702L69.5853 117.09V91.702H97.1286Z" fill="#B3DFEC"/>
<rect x="124.672" y="90.5981" width="27.5434" height="27.596" fill="#F3CD8E"/>
<rect width="29.7469" height="3.31154" transform="matrix(1 0 0 -1 123.57 121.506)" fill="#F3CD8E"/>
<rect x="124.672" y="91.7019" width="27.5434" height="25.3883" fill="#9FD7E8"/>
<path d="M152.215 91.702L124.672 117.09V91.702H152.215Z" fill="#B3DFEC"/>
<rect x="179.759" y="90.5981" width="27.5435" height="27.596" fill="#F3CD8E"/>
<rect width="29.7469" height="3.31152" transform="matrix(1 0 0 -1 178.657 121.506)" fill="#F3CD8E"/>
<rect x="179.759" y="91.7019" width="27.5435" height="25.3883" fill="#9FD7E8"/>
<path d="M207.302 91.702L179.759 117.09V91.702H207.302Z" fill="#B3DFEC"/>
<rect x="14.4983" y="35.4062" width="27.5434" height="27.596" fill="#F3CD8E"/>
<rect width="29.7469" height="3.31152" transform="matrix(1 0 0 -1 13.3966 66.3137)" fill="#F3CD8E"/>
<rect x="14.4983" y="36.51" width="27.5434" height="25.3883" fill="#9FD7E8"/>
<path d="M42.0417 36.51L14.4984 61.8983V36.51H42.0417Z" fill="#B3DFEC"/>
<rect x="69.5854" y="35.4062" width="27.5434" height="27.596" fill="#F3CD8E"/>
<rect width="29.7469" height="3.31152" transform="matrix(1 0 0 -1 68.4837 66.3137)" fill="#F3CD8E"/>
<rect x="69.5854" y="36.51" width="27.5434" height="25.3883" fill="#9FD7E8"/>
<path d="M97.1286 36.51L69.5853 61.8983V36.51H97.1286Z" fill="#B3DFEC"/>
<rect x="124.672" y="35.4062" width="27.5434" height="27.596" fill="#F3CD8E"/>
<rect width="29.7469" height="3.31152" transform="matrix(1 0 0 -1 123.57 66.3137)" fill="#F3CD8E"/>
<rect x="124.672" y="36.51" width="27.5434" height="25.3883" fill="#9FD7E8"/>
<path d="M152.215 36.51L124.672 61.8983V36.51H152.215Z" fill="#B3DFEC"/>
<rect x="179.759" y="35.4062" width="27.5435" height="27.596" fill="#F3CD8E"/>
<rect width="29.7469" height="3.31152" transform="matrix(1 0 0 -1 178.657 66.3137)" fill="#F3CD8E"/>
<rect x="179.759" y="36.51" width="27.5435" height="25.3883" fill="#9FD7E8"/>
<path d="M207.302 36.51L179.759 61.8983V36.51H207.302Z" fill="#B3DFEC"/>
<path fill-rule="evenodd" clip-rule="evenodd" d="M234.933 84.6951C252.835 84.6951 267.348 70.1547 267.348 52.2183C267.348 34.2819 252.835 19.7415 234.933 19.7415C217.031 19.7415 202.518 34.2819 202.518 52.2183C202.518 70.1547 217.031 84.6951 234.933 84.6951ZM236.382 49.7328C240.172 51.9251 245.018 50.6241 247.206 46.827C249.394 43.03 248.095 38.1747 244.305 35.9825C240.516 33.7902 235.67 35.0912 233.481 38.8883C231.293 42.6853 232.592 47.5406 236.382 49.7328Z" fill="#FAE961"/>
<path fill-rule="evenodd" clip-rule="evenodd" d="M207.27 65.9263L237.214 83.2473L228.537 98.3044L212.792 102.531L214.902 110.418L207.03 112.532L209.139 120.419L201.267 122.532L203.113 129.433L196.269 141.308L181.6 145.246L171.938 139.657L169.67 131.177L207.27 65.9263Z" fill="#FAE961"/>
<rect width="5.76541" height="51.9382" transform="matrix(0.865612 0.500715 -0.499285 0.866438 205.582 80.1964)" fill="#F3CD8E"/>
<path d="M208.464 75.1967L210.573 83.0837L205.582 80.1969L208.464 75.1967Z" fill="#F3CD8E"/>
<path d="M181.759 133.085L179.65 125.198L184.641 128.085L181.759 133.085Z" fill="#F3CD8E"/>
</svg>
