<svg width="227" height="218" viewBox="0 0 227 218" fill="none" xmlns="http://www.w3.org/2000/svg">
<path d="M177.562 76.3017C174.972 70.2979 171.236 64.8572 166.566 60.2844C161.891 55.6979 156.38 52.053 150.332 49.5481C144.06 46.9403 137.333 45.6055 130.542 45.6211C121.014 45.6211 111.718 48.2326 103.64 53.1655C101.707 54.3455 99.871 55.6416 98.1316 57.0538C96.3923 55.6416 94.5563 54.3455 92.6237 53.1655C84.5453 48.2326 75.2495 45.6211 65.7217 45.6211C58.8609 45.6211 52.2127 46.9365 45.9317 49.5481C39.8633 52.0629 34.394 55.6803 29.6977 60.2844C25.0207 64.8521 21.2846 70.294 18.7011 76.3017C16.0148 82.55 14.6426 89.1853 14.6426 96.0139C14.6426 102.456 15.9568 109.168 18.5658 115.997C20.7497 121.704 23.8805 127.623 27.8811 133.601C34.22 143.06 42.9361 152.926 53.7588 162.927C71.6935 179.505 89.4542 190.957 90.2079 191.422L94.7882 194.362C96.8175 195.658 99.4265 195.658 101.456 194.362L106.036 191.422C106.79 190.938 124.531 179.505 142.485 162.927C153.308 152.926 162.024 143.06 168.363 133.601C172.363 127.623 175.514 121.704 177.678 115.997C180.287 109.168 181.601 102.456 181.601 96.0139C181.621 89.1853 180.248 82.55 177.562 76.3017Z" fill="#EF806F"/>
<mask id="mask0_313_6563" style="mask-type:alpha" maskUnits="userSpaceOnUse" x="14" y="45" width="168" height="151">
<path d="M177.562 76.3019C174.972 70.298 171.236 64.8573 166.565 60.2845C161.891 55.698 156.38 52.0531 150.331 49.5482C144.06 46.9404 137.333 45.6056 130.541 45.6212C121.014 45.6212 111.718 48.2328 103.639 53.1656C101.707 54.3457 99.8709 55.6418 98.1315 57.0539C96.3922 55.6418 94.5562 54.3457 92.6236 53.1656C84.5452 48.2328 75.2493 45.6212 65.7215 45.6212C58.8608 45.6212 52.2126 46.9367 45.9316 49.5482C39.8631 52.063 34.3938 55.6805 29.6976 60.2845C25.0206 64.8522 21.2845 70.2941 18.701 76.3019C16.0147 82.5502 14.6425 89.1854 14.6425 96.0141C14.6425 102.456 15.9567 109.168 18.5657 115.997C20.7496 121.704 23.8804 127.623 27.8809 133.601C34.2199 143.06 42.936 152.926 53.7587 162.927C71.6933 179.506 89.4541 190.958 90.2078 191.422L94.7881 194.362C96.8173 195.658 99.4264 195.658 101.456 194.362L106.036 191.422C106.79 190.938 124.531 179.506 142.485 162.927C153.308 152.926 162.024 143.06 168.363 133.601C172.363 127.623 175.513 121.704 177.678 115.997C180.287 109.168 181.601 102.456 181.601 96.0141C181.62 89.1854 180.248 82.5502 177.562 76.3019Z" fill="#EF806F"/>
</mask>
<g mask="url(#mask0_313_6563)">
<path d="M22.1558 131.769H52.2083L63.478 105.841L94.7828 176.934L104.8 154.352H157.392V149.334H101.879L94.7828 164.807L63.8954 94.1313L48.8692 126.75H22.1558V131.769Z" fill="white"/>
</g>
<rect x="149.58" y="2.45166" width="3.98476" height="159.694" fill="#262626"/>
<path fill-rule="evenodd" clip-rule="evenodd" d="M153.564 162.146C153.564 175.927 142.414 187.099 128.659 187.099C114.905 187.099 103.755 175.927 103.755 162.147H107.739C107.739 162.147 107.739 162.147 107.739 162.147C107.739 173.723 117.105 183.107 128.659 183.107C140.213 183.107 149.579 173.723 149.579 162.147C149.579 162.147 149.579 162.147 149.579 162.147H153.564V162.067C153.564 162.094 153.564 162.12 153.564 162.146ZM128.79 137.194C128.746 137.194 128.703 137.194 128.659 137.194C128.616 137.194 128.572 137.194 128.529 137.194H128.79Z" fill="#262626"/>
<ellipse cx="105.747" cy="162.146" rx="1.99239" ry="1.99619" fill="#262626"/>
<ellipse cx="151.572" cy="2.45162" rx="1.99238" ry="1.99618" fill="#262626"/>
<path fill-rule="evenodd" clip-rule="evenodd" d="M226.68 71.5088C221.183 35.2397 189.826 7.44153 151.965 7.44153C114.105 7.44153 82.7482 35.2397 77.2514 71.5088C84.0416 67.772 91.8457 65.6458 100.147 65.6458C109.706 65.6458 118.605 68.4648 126.056 73.3155C133.508 68.4648 142.407 65.6458 151.966 65.6458C161.524 65.6458 170.423 68.4647 177.875 73.3154C185.326 68.4647 194.225 65.6458 203.784 65.6458C212.085 65.6458 219.889 67.772 226.68 71.5088Z" fill="#B3DFEC"/>
<path fill-rule="evenodd" clip-rule="evenodd" d="M152.051 65.6458C142.493 65.6458 133.594 68.4648 126.142 73.3155L126.062 73.2633C126.27 36.8192 137.789 7.44153 151.968 7.44153C166.147 7.44153 177.665 36.8172 177.874 73.2594C170.441 68.4431 161.573 65.6458 152.051 65.6458Z" fill="#9FD7E8"/>
<path d="M36.0112 134.278L0.115051 146.745V184.149C0.115051 204.809 35.555 217.916 35.555 217.916C35.555 217.916 71.9073 204.809 71.9073 184.149V146.745L36.0112 134.278ZM65.1768 184.149C65.1768 200.932 52.1177 205.448 36.0112 205.448C19.9047 205.448 6.84558 200.932 6.84558 184.149V152.005L36.0112 141.291L65.1768 152.005V184.149Z" fill="#9FD7E8"/>
<path d="M23.5241 174.321C23.2122 173.994 22.8415 173.735 22.4332 173.558C22.0249 173.382 21.5872 173.291 21.1451 173.291C20.703 173.291 20.2652 173.382 19.8569 173.558C19.4487 173.735 19.0779 173.994 18.766 174.321C18.4527 174.646 18.204 175.032 18.0344 175.457C17.8647 175.883 17.7774 176.339 17.7774 176.8C17.7774 177.26 17.8647 177.717 18.0344 178.142C18.204 178.567 18.4527 178.954 18.766 179.279L31.0586 192.087C31.3536 192.395 31.7041 192.64 32.0898 192.806C32.4756 192.973 32.8892 193.059 33.3068 193.059C33.7244 193.059 34.138 192.973 34.5237 192.806C34.9095 192.64 35.2599 192.395 35.555 192.087L56.4477 170.317C56.7433 170.01 56.9778 169.645 57.1378 169.243C57.2978 168.841 57.3802 168.41 57.3802 167.975C57.3802 167.54 57.2978 167.109 57.1378 166.707C56.9778 166.305 56.7433 165.94 56.4477 165.632L56.186 165.36C55.8909 165.052 55.5405 164.807 55.1547 164.64C54.769 164.474 54.3554 164.388 53.9378 164.388C53.5202 164.388 53.1066 164.474 52.7208 164.64C52.3351 164.807 51.9846 165.052 51.6896 165.36L33.3021 184.509L28.4131 179.415L23.5241 174.321Z" fill="#9FD7E8"/>
<path fill-rule="evenodd" clip-rule="evenodd" d="M65.1768 184.149C65.1768 200.932 52.1177 205.448 36.0112 205.448C19.9047 205.448 6.84558 200.932 6.84558 184.149V152.005L36.0112 141.291L65.1768 152.005V184.149ZM22.4332 173.558C22.8415 173.735 23.2122 173.994 23.5241 174.321L28.4131 179.415L33.3021 184.509L51.6896 165.36C51.9846 165.052 52.3351 164.807 52.7208 164.64C53.1066 164.474 53.5202 164.388 53.9378 164.388C54.3554 164.388 54.769 164.474 55.1547 164.64C55.5405 164.807 55.8909 165.052 56.186 165.36L56.4477 165.632C56.7433 165.94 56.9778 166.305 57.1378 166.707C57.2978 167.109 57.3802 167.54 57.3802 167.975C57.3802 168.41 57.2978 168.841 57.1378 169.243C56.9778 169.645 56.7433 170.01 56.4477 170.317L35.555 192.087C35.2599 192.395 34.9095 192.64 34.5237 192.806C34.138 192.973 33.7244 193.059 33.3068 193.059C32.8892 193.059 32.4756 192.973 32.0898 192.806C31.7041 192.64 31.3536 192.395 31.0586 192.087L18.766 179.279C18.4527 178.954 18.204 178.567 18.0344 178.142C17.8647 177.717 17.7774 177.26 17.7774 176.8C17.7774 176.339 17.8647 175.883 18.0344 175.457C18.204 175.032 18.4527 174.646 18.766 174.321C19.0779 173.994 19.4487 173.735 19.8569 173.558C20.2652 173.382 20.703 173.291 21.1451 173.291C21.5872 173.291 22.0249 173.382 22.4332 173.558Z" fill="#9FD7E8"/>
<ellipse cx="36.0113" cy="173.588" rx="20.0351" ry="20.0733" fill="white"/>
<rect x="21.8199" y="168.57" width="27.5482" height="9.20024" fill="#EF806F"/>
<rect x="31.0024" y="186.971" width="27.6008" height="9.18274" transform="rotate(-90 31.0024 186.971)" fill="#EF806F"/>
</svg>
