<svg width="245" height="211" viewBox="0 0 245 211" fill="none" xmlns="http://www.w3.org/2000/svg">
<ellipse cx="131.752" cy="130.143" rx="63.9743" ry="20.5357" fill="#262626"/>
<rect x="67.7776" y="52.356" width="127.949" height="78.4091" fill="#262626"/>
<path d="M132.373 0.083313L244.173 46.1331H20.5732L132.373 0.083313Z" fill="#363636"/>
<path d="M132.373 92.1829L20.5733 46.1331L244.173 46.1331L132.373 92.1829Z" fill="#363636"/>
<rect x="0.697876" y="99.6503" width="156.52" height="99.5671" fill="#FAE961"/>
<ellipse cx="78.9573" cy="191.756" rx="11.7079" ry="11.7303" fill="#FAE961"/>
<ellipse cx="78.9575" cy="191.756" rx="7.26698" ry="7.28085" fill="#F3CD8E"/>
<rect x="2.25067" y="101.15" width="153.414" height="94.651" fill="white"/>
<rect x="77.7464" y="101.15" width="2.42233" height="94.651" fill="#EAEAF0"/>
<rect x="124.534" y="111.237" width="22.602" height="2.10336" fill="#EAEAF0"/>
<rect x="96.15" y="111.237" width="22.6021" height="2.10336" fill="#EAEAF0"/>
<rect x="124.534" y="117.547" width="22.602" height="2.10335" fill="#EAEAF0"/>
<rect x="96.15" y="117.547" width="22.6021" height="2.10335" fill="#EAEAF0"/>
<rect x="96.15" y="136.477" width="22.6021" height="2.10335" fill="#EAEAF0"/>
<rect x="124.534" y="142.787" width="22.602" height="2.10336" fill="#EAEAF0"/>
<rect x="96.15" y="123.857" width="22.6021" height="2.10335" fill="#EAEAF0"/>
<rect x="124.534" y="123.857" width="22.602" height="2.10335" fill="#EAEAF0"/>
<rect x="96.15" y="142.787" width="22.6021" height="2.10336" fill="#EAEAF0"/>
<rect x="124.534" y="149.097" width="22.602" height="2.10335" fill="#EAEAF0"/>
<rect x="96.15" y="161.718" width="22.6021" height="2.10336" fill="#EAEAF0"/>
<rect x="124.534" y="161.718" width="22.602" height="2.10336" fill="#EAEAF0"/>
<rect x="96.15" y="149.097" width="22.6021" height="2.10335" fill="#EAEAF0"/>
<rect x="124.563" y="136.477" width="22.6021" height="2.10335" fill="#EAEAF0"/>
<rect x="96.15" y="168.028" width="22.6021" height="2.10336" fill="#EAEAF0"/>
<rect x="96.15" y="174.338" width="22.6021" height="2.10334" fill="#EAEAF0"/>
<rect x="124.534" y="168.028" width="22.602" height="2.10336" fill="#EAEAF0"/>
<rect x="124.534" y="174.338" width="22.602" height="2.10334" fill="#EAEAF0"/>
<rect x="38.9446" y="111.237" width="22.602" height="2.10336" fill="#EAEAF0"/>
<rect x="10.5605" y="111.237" width="29.6148" height="2.10336" fill="#EAEAF0"/>
<rect x="38.9446" y="117.547" width="22.602" height="2.10335" fill="#EAEAF0"/>
<rect x="10.5605" y="117.547" width="29.6148" height="2.10336" fill="#EAEAF0"/>
<rect x="10.5605" y="136.477" width="29.6148" height="2.10335" fill="#EAEAF0"/>
<rect x="38.9446" y="142.787" width="22.602" height="2.10336" fill="#EAEAF0"/>
<rect x="10.5606" y="123.857" width="22.6021" height="2.10335" fill="#EAEAF0"/>
<rect x="10.5605" y="142.788" width="29.6148" height="2.10336" fill="#EAEAF0"/>
<rect x="38.9446" y="149.097" width="22.602" height="2.10335" fill="#EAEAF0"/>
<rect x="10.5605" y="161.717" width="29.6148" height="2.10336" fill="#EAEAF0"/>
<rect x="38.9446" y="161.718" width="22.602" height="2.10336" fill="#EAEAF0"/>
<rect x="10.5605" y="149.097" width="29.6148" height="2.10336" fill="#EAEAF0"/>
<rect x="38.9738" y="136.477" width="22.6021" height="2.10335" fill="#EAEAF0"/>
<rect x="10.5605" y="168.028" width="29.6148" height="2.10336" fill="#EAEAF0"/>
<rect x="10.5606" y="174.338" width="22.6021" height="2.10334" fill="#EAEAF0"/>
<rect x="38.9446" y="168.028" width="22.602" height="2.10336" fill="#EAEAF0"/>
<rect x="87.4354" y="101.15" width="6.45953" height="22.247" fill="#EF806F"/>
<path d="M90.666 123.398L93.8957 120.162V126.634L90.666 123.398Z" fill="#EF806F"/>
<path d="M90.666 123.398L87.4362 126.633V120.162L90.666 123.398Z" fill="#EF806F"/>
<rect x="212.375" y="202.951" width="7.96538" height="81.4486" transform="rotate(90 212.375 202.951)" fill="#9FD7E8"/>
<rect x="212.375" y="205.075" width="3.71718" height="81.4486" transform="rotate(90 212.375 205.075)" fill="#EF806F"/>
<rect width="7.96538" height="8.19608" rx="3" transform="matrix(0 1 1 0 212.375 202.951)" fill="#EF806F"/>
<rect width="7.96538" height="4.09804" transform="matrix(0 1 1 0 212.375 202.951)" fill="#F3CD8E"/>
<path d="M121.193 206.934L130.926 202.951V210.917L121.193 206.934Z" fill="#F2CB86"/>
<path d="M132.463 209.589L130.926 210.917V208.262L132.463 209.589Z" fill="#F2CB86"/>
<path d="M132.463 206.934L130.926 208.262V205.606L132.463 206.934Z" fill="#F2CB86"/>
<path d="M132.463 204.279L130.926 205.606V202.951L132.463 204.279Z" fill="#F2CB86"/>
<path d="M121.193 206.934L125.291 205.258V208.614L121.193 206.934Z" fill="#262626"/>
</svg>
