<svg width="229" height="56" viewBox="0 0 229 56" fill="none" xmlns="http://www.w3.org/2000/svg">
<path fill-rule="evenodd" clip-rule="evenodd" d="M8.05176 8.55494L15.144 15.6492C18.3037 12.4884 22.669 10.5332 27.4904 10.5332C37.1338 10.5332 44.951 18.3532 44.951 28H54.9806C54.9806 12.8123 42.6727 0.5 27.4904 0.5C19.899 0.5 13.0266 3.57834 8.05176 8.55494Z" fill="#EF806F"/>
<path fill-rule="evenodd" clip-rule="evenodd" d="M15.1438 15.6492L8.05156 8.55494C3.07723 13.5315 0 20.4064 0 28C0 43.1877 12.3079 55.5 27.4897 55.5L27.4902 45.4668C17.8473 45.4668 10.0296 37.6468 10.0296 28C10.0296 23.1768 11.9842 18.81 15.1438 15.6492V15.6492Z" fill="#9FD7E8"/>
<path fill-rule="evenodd" clip-rule="evenodd" d="M44.9509 28C44.9509 37.6468 37.1336 45.4668 27.4902 45.4668V55.5C42.6725 55.5 54.9804 43.1877 54.9804 28H44.9509Z" fill="#FAE961"/>
<path d="M80.0364 25.506V30.4411H78.8853V26.61H64.0587V9.80997H65.2823V25.506H76.1018V9.80997H77.3254V25.506H80.0364V25.506ZM95.6039 25.506V26.61H84.016V9.80997H95.2437V10.914H85.2396V17.538H94.1885V18.6181H85.2396V25.506H95.6039V25.506ZM113.546 9.80997V26.61H112.323V18.6181H101.095V26.61H99.8713V9.80997H101.095V17.538H112.323V9.80997H113.546V9.80997ZM130.313 10.914H124.267V26.61H123.044V10.914H116.998V9.80997H130.313V10.914V10.914ZM139.786 9.80997C141.898 9.80997 143.554 10.3108 144.753 11.3099C145.952 12.3095 146.552 13.698 146.552 15.4738C146.552 17.2341 145.952 18.6146 144.753 19.6142C143.554 20.6133 141.897 21.1142 139.786 21.1142H134.988V26.61H133.765V9.80997H139.786V9.80997ZM139.786 20.0101C141.578 20.0101 142.945 19.6177 143.889 18.834C144.832 18.0503 145.304 16.9302 145.304 15.4738C145.304 14.0178 144.832 12.8938 143.889 12.1021C142.945 11.3109 141.577 10.914 139.786 10.914H134.988V20.0101H139.786V20.0101ZM71.067 46.2565C69.4198 46.2565 67.9319 45.8842 66.6048 45.1405C65.2773 44.3968 64.2331 43.3762 63.4736 42.0801C62.7142 40.7846 62.334 39.3367 62.334 37.7363C62.334 36.1364 62.7142 34.6885 63.4736 33.3925C64.2331 32.097 65.2773 31.0763 66.6048 30.3326C67.9319 29.5889 69.4198 29.2166 71.067 29.2166C72.7143 29.2166 74.2017 29.5849 75.5292 30.3206C76.8568 31.0564 77.9005 32.073 78.6604 33.3685C79.4199 34.6645 79.7996 36.1204 79.7996 37.7363C79.7996 39.3527 79.4199 40.8086 78.6604 42.1046C77.9005 43.4002 76.8568 44.4167 75.5292 45.1525C74.2022 45.8882 72.7143 46.2565 71.067 46.2565V46.2565ZM71.067 45.1285C72.4745 45.1285 73.7461 44.8081 74.8817 44.1683C76.0169 43.5286 76.9132 42.6444 77.5687 41.5164C78.2243 40.3888 78.552 39.1283 78.552 37.7363C78.552 36.3443 78.2243 35.0843 77.5687 33.9568C76.9132 32.8287 76.0169 31.9445 74.8817 31.3048C73.7461 30.665 72.4745 30.3446 71.067 30.3446C69.6596 30.3446 68.384 30.665 67.2404 31.3048C66.0972 31.9445 65.1974 32.8287 64.5414 33.9568C63.8858 35.0843 63.5576 36.3443 63.5576 37.7363C63.5576 39.1283 63.8858 40.3883 64.5414 41.5164C65.1974 42.6444 66.0972 43.5286 67.2404 44.1683C68.384 44.8081 69.6596 45.1285 71.067 45.1285ZM94.6261 30.4406H88.5806V46.1366H87.357V30.4406H81.311V29.3365H94.6261V30.4406V30.4406ZM108.853 29.3365V46.1366H107.63V38.9363C105.694 39.7845 103.831 40.2084 102.04 40.2084C100.136 40.2084 98.6527 39.7485 97.589 38.8284C96.5252 37.9087 95.9936 36.6167 95.9936 34.9524V29.3365H97.2172V34.8324C97.2172 36.1764 97.6489 37.2245 98.5128 37.9762C99.3766 38.7284 100.584 39.1043 102.136 39.1043C103.847 39.1043 105.678 38.6725 107.63 37.8083V29.3365H108.853V29.3365ZM126.486 45.0325V46.1366H114.899V29.3365H126.126V30.4406H116.122V37.0645H125.071V38.1446H116.122V45.0325H126.486V45.0325ZM141.097 30.4406H135.051V46.1366H133.828V30.4406H127.782V29.3365H141.097V30.4406V30.4406ZM158.034 29.3365V46.1366H156.811V38.1446H145.583V46.1366H144.359V29.3365H145.583V37.0645H156.811V29.3365H158.034V29.3365ZM171.278 46.2565C169.63 46.2565 168.143 45.8847 166.815 45.1405C165.488 44.3963 164.444 43.3762 163.684 42.0801C162.925 40.7846 162.545 39.3367 162.545 37.7363C162.545 36.1364 162.925 34.6885 163.684 33.3925C164.444 32.0965 165.488 31.0763 166.815 30.3326C168.143 29.5884 169.63 29.2166 171.278 29.2166C172.925 29.2166 174.413 29.5844 175.74 30.3206C177.068 31.0564 178.111 32.0725 178.871 33.3685C179.63 34.6645 180.011 36.1204 180.011 37.7363C180.011 39.3527 179.63 40.8086 178.871 42.1046C178.111 43.4002 177.068 44.4162 175.74 45.1525C174.413 45.8882 172.925 46.2565 171.278 46.2565V46.2565ZM171.278 45.1285C172.685 45.1285 173.957 44.8086 175.092 44.1683C176.228 43.5281 177.124 42.6444 177.779 41.5164C178.435 40.3883 178.763 39.1283 178.763 37.7363C178.763 36.3443 178.435 35.0843 177.779 33.9568C177.124 32.8287 176.228 31.9445 175.092 31.3048C173.957 30.6645 172.685 30.3446 171.278 30.3446C169.87 30.3446 168.595 30.6645 167.451 31.3048C166.308 31.9445 165.408 32.8287 164.752 33.9568C164.096 35.0843 163.769 36.3443 163.769 37.7363C163.769 39.1283 164.096 40.3883 164.752 41.5164C165.408 42.6444 166.308 43.5281 167.451 44.1683C168.595 44.8086 169.87 45.1285 171.278 45.1285ZM191.742 46.2565C190.095 46.2565 188.611 45.8882 187.292 45.1525C185.972 44.4162 184.933 43.4002 184.173 42.1046C183.413 40.8086 183.033 39.3527 183.033 37.7363C183.033 36.1204 183.413 34.6645 184.173 33.3685C184.933 32.0725 185.972 31.0564 187.292 30.3206C188.611 29.5844 190.095 29.2166 191.742 29.2166C192.958 29.2166 194.077 29.4125 195.101 29.8043C196.125 30.1967 196.996 30.7764 197.716 31.5447L196.948 32.3369C195.605 31.0084 193.885 30.3446 191.79 30.3446C190.382 30.3446 189.103 30.6645 187.952 31.3048C186.8 31.9445 185.896 32.8287 185.241 33.9568C184.585 35.0843 184.257 36.3443 184.257 37.7363C184.257 39.1283 184.585 40.3883 185.241 41.5164C185.896 42.6444 186.8 43.5281 187.952 44.1683C189.103 44.8086 190.382 45.1285 191.79 45.1285C193.869 45.1285 195.589 44.4562 196.948 43.1123L197.716 43.9044C196.996 44.6721 196.121 45.2564 195.089 45.6563C194.057 46.0566 192.942 46.2565 191.742 46.2565V46.2565ZM211.991 30.4406H205.945V46.1366H204.721V30.4406H198.675V29.3365H211.991V30.4406ZM215.253 29.3365H216.477V44.0724L227.921 29.3365H229V46.1366H227.777V31.4247L216.333 46.1366H215.253V29.3365V29.3365Z" fill="#F8F8FA"/>
<path fill-rule="evenodd" clip-rule="evenodd" d="M124.267 27.9113C124.267 27.5728 123.993 27.2988 123.656 27.2988C123.317 27.2988 123.044 27.5728 123.044 27.9113C123.044 28.2493 123.317 28.5233 123.656 28.5233C123.993 28.5233 124.267 28.2493 124.267 27.9113Z" fill="#F8F8FA"/>
<path fill-rule="evenodd" clip-rule="evenodd" d="M116.758 27.9113C116.758 27.5728 117.032 27.2988 117.37 27.2988C117.708 27.2988 117.982 27.5728 117.982 27.9113C117.982 28.2493 117.708 28.5233 117.37 28.5233C117.032 28.5233 116.758 28.2493 116.758 27.9113Z" fill="#F8F8FA"/>
</svg>
