<svg width="320" height="262" viewBox="0 0 320 262" fill="none" xmlns="http://www.w3.org/2000/svg">
<rect width="104.558" height="147.933" transform="matrix(0.964503 -0.259717 0.257921 0.967341 33.6599 63.2144)" fill="#F8F8FA"/>
<rect width="35.2625" height="3.28741" transform="matrix(0.964503 -0.259717 0.257921 0.967341 92.2629 63.624)" fill="#EAEAF0"/>
<rect width="35.2626" height="3.28741" transform="matrix(0.964503 -0.259717 0.257921 0.967341 49.5518 75.125)" fill="#EAEAF0"/>
<rect width="35.2625" height="3.28741" transform="matrix(0.964503 -0.259717 0.257921 0.967341 94.8066 73.1641)" fill="#EAEAF0"/>
<rect width="35.2626" height="3.28741" transform="matrix(0.964503 -0.259717 0.257921 0.967341 52.0955 84.665)" fill="#EAEAF0"/>
<rect width="35.2626" height="3.28741" transform="matrix(0.964503 -0.259717 0.257921 0.967341 59.7266 113.286)" fill="#EAEAF0"/>
<rect width="35.2626" height="3.28741" transform="matrix(0.964503 -0.259717 0.257921 0.967341 54.6392 94.2051)" fill="#EAEAF0"/>
<rect width="35.2625" height="3.28741" transform="matrix(0.964503 -0.259717 0.257921 0.967341 97.3503 82.7041)" fill="#EAEAF0"/>
<rect width="35.2625" height="3.28741" transform="matrix(0.964503 -0.259717 0.257921 0.967341 102.438 101.785)" fill="#EAEAF0"/>
<rect width="35.2625" height="3.28741" transform="matrix(0.964503 -0.259717 0.257921 0.967341 104.981 111.325)" fill="#EAEAF0"/>
<rect width="35.2625" height="3.28741" transform="matrix(0.964503 -0.259717 0.257921 0.967341 107.525 120.865)" fill="#EAEAF0"/>
<rect width="35.2626" height="3.28741" transform="matrix(0.964503 -0.259717 0.257921 0.967341 62.2703 122.826)" fill="#EAEAF0"/>
<rect width="35.2626" height="3.28741" transform="matrix(0.964503 -0.259717 0.257921 0.967341 69.9011 151.446)" fill="#EAEAF0"/>
<rect width="35.2625" height="3.28741" transform="matrix(0.964503 -0.259717 0.257921 0.967341 112.613 139.945)" fill="#EAEAF0"/>
<rect width="35.2626" height="3.28741" transform="matrix(0.964503 -0.259717 0.257921 0.967341 64.8137 132.366)" fill="#EAEAF0"/>
<rect width="35.2626" height="3.28741" transform="matrix(0.964503 -0.259717 0.257921 0.967341 72.4448 160.986)" fill="#EAEAF0"/>
<rect width="35.2626" height="3.2874" transform="matrix(0.964503 -0.259717 0.257921 0.967341 74.9885 170.526)" fill="#EAEAF0"/>
<rect width="35.2625" height="3.28741" transform="matrix(0.964503 -0.259717 0.257921 0.967341 115.156 149.485)" fill="#EAEAF0"/>
<rect width="35.2625" height="3.2874" transform="matrix(0.964503 -0.259717 0.257921 0.967341 117.7 159.025)" fill="#EAEAF0"/>
<rect width="120.826" height="168.663" transform="matrix(0.965584 0.260091 -0.257552 0.966264 133.652 39.1206)" fill="#262626"/>
<rect width="104.443" height="148.095" transform="matrix(0.965584 0.260091 -0.257552 0.966264 139.443 49.2012)" fill="white"/>
<rect width="40.958" height="13.164" transform="matrix(0.965584 0.260091 -0.257552 0.966264 173.045 47.1753)" fill="#FAED61"/>
<path fill-rule="evenodd" clip-rule="evenodd" d="M191.774 55.6286C196.252 56.8347 200.854 54.1642 202.054 49.6638C203.253 45.1634 200.596 40.5374 196.118 39.3313C191.641 38.1252 187.038 40.7957 185.839 45.2961C184.639 49.7965 187.297 54.4225 191.774 55.6286ZM192.622 52.4487C195.352 53.1841 198.158 51.5557 198.89 48.8116C199.621 46.0674 198.001 43.2467 195.271 42.5113C192.54 41.7758 189.734 43.4042 189.003 46.1484C188.271 48.8925 189.892 51.7132 192.622 52.4487Z" fill="#FAED61"/>
<rect width="24.5748" height="24.6824" rx="12.2874" transform="matrix(0.965584 0.260091 -0.257552 0.966264 135.81 112.128)" fill="#05D197"/>
<rect width="13.1353" height="3.28382" transform="matrix(0.863792 -0.501233 0.498764 0.868253 140.693 130.885)" fill="white"/>
<rect width="3.28383" height="9.85147" transform="matrix(0.863792 -0.501233 0.498764 0.868253 137.417 125.183)" fill="white"/>
<rect width="24.5748" height="24.6824" rx="12.2874" transform="matrix(0.965584 0.260091 -0.257552 0.966264 146.405 72.3779)" fill="#05D197"/>
<rect width="13.1353" height="3.28382" transform="matrix(0.863792 -0.501233 0.498764 0.868253 151.288 91.1353)" fill="white"/>
<rect width="3.28383" height="9.85147" transform="matrix(0.863792 -0.501233 0.498764 0.868253 148.012 85.4331)" fill="white"/>
<rect width="24.5748" height="24.6824" rx="12.2874" transform="matrix(0.965584 0.260091 -0.257552 0.966264 125.215 151.877)" fill="#05D197"/>
<rect width="13.1353" height="3.28383" transform="matrix(0.863792 -0.501233 0.498763 0.868253 130.098 170.635)" fill="white"/>
<rect width="3.28383" height="9.85148" transform="matrix(0.863792 -0.501233 0.498763 0.868253 126.822 164.933)" fill="white"/>
<rect width="29.8998" height="3.29166" transform="matrix(0.965584 0.260091 -0.257552 0.966264 169.398 122.879)" fill="#EAEAF0"/>
<rect width="29.8998" height="3.29165" transform="matrix(0.965584 0.260091 -0.257552 0.966264 179.993 83.1294)" fill="#EAEAF0"/>
<rect width="29.8998" height="3.29166" transform="matrix(0.965584 0.260091 -0.257552 0.966264 158.803 162.629)" fill="#EAEAF0"/>
<rect width="43.8257" height="3.29164" transform="matrix(0.965584 0.260091 -0.257552 0.966264 166.855 132.419)" fill="#EAEAF0"/>
<rect width="43.8257" height="3.29164" transform="matrix(0.965584 0.260091 -0.257552 0.966264 177.45 92.6694)" fill="#EAEAF0"/>
<rect width="43.8257" height="3.29167" transform="matrix(0.965584 0.260091 -0.257552 0.966264 156.26 172.168)" fill="#EAEAF0"/>
<rect width="43.8257" height="3.29165" transform="matrix(0.965584 0.260091 -0.257552 0.966264 164.312 141.959)" fill="#EAEAF0"/>
<rect width="43.8257" height="3.29163" transform="matrix(0.965584 0.260091 -0.257552 0.966264 174.907 102.209)" fill="#EAEAF0"/>
<rect width="43.8257" height="3.29166" transform="matrix(0.965584 0.260091 -0.257552 0.966264 153.718 181.708)" fill="#EAEAF0"/>
<path d="M244.433 109.299L293.564 109.301L293.567 171.853L244.435 171.85L244.433 109.299Z" fill="#262626"/>
<path d="M249.346 114.237L288.651 114.239L288.652 124.116L249.346 124.114L249.346 114.237Z" fill="#9FD7E8"/>
<mask id="mask0_313_7003" style="mask-type:alpha" maskUnits="userSpaceOnUse" x="249" y="114" width="40" height="11">
<path d="M249.346 114.237L288.651 114.239L288.652 124.116L249.346 124.114L249.346 114.237Z" fill="#9FD7E8"/>
</mask>
<g mask="url(#mask0_313_7003)">
<path d="M272.922 126.562L282.338 110.169L278.006 107.655L268.59 124.048L272.922 126.562Z" fill="#B3DFEC"/>
<path d="M277.455 129.192L286.871 112.799L284.034 111.153L274.618 127.546L277.455 129.192Z" fill="#B3DFEC"/>
</g>
<path d="M249.347 128.229L256.716 128.229L256.717 135.637L249.347 135.636L249.347 128.229Z" fill="#EAEAF0"/>
<path d="M249.347 138.929L256.717 138.929L256.717 146.336L249.348 146.336L249.347 138.929Z" fill="#EAEAF0"/>
<path d="M249.348 149.628L256.717 149.629L256.718 157.036L249.348 157.036L249.348 149.628Z" fill="#EAEAF0"/>
<path d="M249.348 160.328L256.718 160.328L256.718 167.736L249.348 167.736L249.348 160.328Z" fill="#EAEAF0"/>
<path d="M281.282 128.23L288.652 128.231L288.652 135.638L281.283 135.638L281.282 128.23Z" fill="#FAED61"/>
<path d="M281.283 138.93L288.652 138.931L288.653 146.338L281.283 146.338L281.283 138.93Z" fill="#9FD7E8"/>
<path d="M281.283 149.63L288.653 149.63L288.654 167.737L281.284 167.737L281.283 149.63Z" fill="#EF806F"/>
<path d="M270.637 128.23L278.007 128.23L278.007 135.638L270.637 135.637L270.637 128.23Z" fill="#EAEAF0"/>
<path d="M270.637 138.93L278.007 138.93L278.008 146.337L270.638 146.337L270.637 138.93Z" fill="#EAEAF0"/>
<path d="M270.638 149.629L278.008 149.63L278.008 157.037L270.638 157.037L270.638 149.629Z" fill="#EAEAF0"/>
<path d="M270.638 160.329L278.008 160.329L278.009 167.737L270.639 167.737L270.638 160.329Z" fill="#EAEAF0"/>
<path d="M259.992 128.229L267.362 128.23L267.362 135.637L259.992 135.637L259.992 128.229Z" fill="#EAEAF0"/>
<path d="M259.992 138.929L267.362 138.93L267.363 146.337L259.993 146.337L259.992 138.929Z" fill="#EAEAF0"/>
<path d="M259.993 149.629L267.363 149.629L267.363 157.037L259.993 157.036L259.993 149.629Z" fill="#EAEAF0"/>
<path d="M259.993 160.329L267.363 160.329L267.363 167.736L259.994 167.736L259.993 160.329Z" fill="#EAEAF0"/>
<rect width="6.14686" height="65.3752" transform="matrix(0.818458 0.576039 -0.57112 0.81984 252.75 183.689)" fill="#9FD7E8"/>
<rect width="2.86854" height="65.3752" transform="matrix(0.818458 0.576039 -0.57112 0.81984 254.092 184.633)" fill="#EF806F"/>
<rect width="6.14686" height="6.57863" rx="3" transform="matrix(0.818458 0.576039 0.57112 -0.81984 252.75 183.689)" fill="#EF806F"/>
<rect width="6.14708" height="3.2899" transform="matrix(0.818458 0.576039 0.57112 -0.81984 252.75 183.689)" fill="#F3CD8E"/>
<path d="M213.467 245.461L215.413 237.286L220.444 240.827L213.467 245.461Z" fill="#F2CB86"/>
<path d="M220.31 239.225L220.444 240.827L218.767 239.646L220.31 239.225Z" fill="#F2CB86"/>
<path d="M218.633 238.045L218.767 239.647L217.09 238.466L218.633 238.045Z" fill="#F2CB86"/>
<path d="M216.956 236.865L217.09 238.466L215.413 237.286L216.956 236.865Z" fill="#F2CB86"/>
<path d="M213.467 245.461L214.287 242.019L216.407 243.511L213.467 245.461Z" fill="#262626"/>
</svg>
